<svg width="1000" height="600" xmlns="http://www.w3.org/2000/svg"><defs><linearGradient id="a" gradientTransform="rotate(90)"><stop offset="5%" stop-color="#636363"/><stop offset="95%" stop-color="#8a8a8a"/></linearGradient><linearGradient id="b" gradientTransform="rotate(90)"><stop offset="5%" stop-color="#7b7b7b"/><stop offset="95%" stop-color="#9c9c9c"/></linearGradient><linearGradient id="c" gradientTransform="rotate(90)"><stop offset="5%" stop-color="#929292"/><stop offset="95%" stop-color="#adadad"/></linearGradient><linearGradient id="d" gradientTransform="rotate(90)"><stop offset="5%" stop-color="#a9a9a9"/><stop offset="95%" stop-color="#bebebe"/></linearGradient><linearGradient id="e" gradientTransform="rotate(90)"><stop offset="5%" stop-color="#8c8c8c"/><stop offset="95%" stop-color="#a8a8a8"/></linearGradient><linearGradient id="f" gradientTransform="rotate(90)"><stop offset="5%" stop-color="#707070"/><stop offset="95%" stop-color="#939393"/></linearGradient><linearGradient id="g" gradientTransform="rotate(90)"><stop offset="5%" stop-color="#535353"/><stop offset="95%" stop-color="#7e7e7e"/></linearGradient><linearGradient id="h" gradientTransform="rotate(90)"><stop offset="5%" stop-color="#363636"/><stop offset="95%" stop-color="#686868"/></linearGradient></defs><path fill="#4c4c4c" d="M0 0h1000v600H0z"/><path d="M0 66c58.665-3.104 117.33-6.208 171-5 53.67 1.208 102.346 6.729 159 5 56.654-1.729 121.286-10.706 176-9 54.714 1.706 99.511 14.097 151 17 51.489 2.903 109.67-3.68 177-6s143.809-.377 173 0c29.191.377 11.096-.811 33-2l-40 534H0Z" fill="url(#a)"/><path d="M0 133c54.424-2.621 108.847-5.242 166-6 57.153-.758 117.034.348 175 2 57.966 1.652 114.016 3.852 169 3 54.984-.852 108.903-4.754 164-6 55.097-1.246 111.372.165 171 3s122.608 7.096 149 8c26.392.904 16.196-1.548 46-4l-40 467H0Z" fill="url(#b)"/><path d="M0 200c61.337 4.03 122.674 8.06 178 7 55.326-1.06 104.643-7.212 155-10 50.357-2.788 101.756-2.214 161-2 59.244.214 126.333.068 182 0s99.91-.057 160 3 136.026 9.16 166 10c29.974.84 13.987-3.58 38-8l-40 400H0Z" fill="url(#c)"/><path d="M0 266c49.575.12 99.15.24 157-1 57.85-1.24 123.974-3.837 182-5 58.026-1.163 107.955-.892 162 2s112.208 8.404 165 9c52.792.596 100.213-3.724 165-7s146.94-5.507 178-5c31.06.507 11.03 3.754 31 7l-40 334H0Z" fill="url(#d)"/><path d="M0 333c60.057.901 120.114 1.803 175 0 54.886-1.803 104.602-6.31 156-9 51.398-2.69 104.477-3.563 162 1 57.523 4.563 119.49 14.563 176 15 56.51.437 107.56-8.69 172-12 64.44-3.31 142.269-.803 171 1 28.731 1.803 8.366 2.901 28 4l-40 267H0Z" fill="url(#e)"/><path d="M0 400c59.24-5.833 118.48-11.666 171-9 52.52 2.666 98.32 13.831 155 14 56.68.169 124.237-10.66 180-14 55.763-3.34 99.73.806 151 6 51.27 5.194 109.842 11.437 175 12 65.158.563 136.902-4.553 166-7 29.098-2.447 15.549-2.223 42-2l-40 200H0Z" fill="url(#f)"/><path d="M0 466c54.21-2.075 108.42-4.15 166-2 57.58 2.15 118.53 8.524 175 9 56.47.476 108.46-4.947 165-8 56.54-3.053 117.63-3.736 168-5 50.37-1.264 90.023-3.11 149-2 58.977 1.11 137.28 5.174 170 7 32.72 1.826 19.86 1.413 47 1l-40 134H0Z" fill="url(#g)"/><path d="M0 533c59.482-4.708 118.965-9.417 170-9 51.035.417 93.623 5.958 151 7 57.377 1.042 129.543-2.417 186 0 56.457 2.417 97.205 10.71 148 11 50.795.29 111.637-7.422 181-8 69.363-.578 147.247 5.978 176 7 28.753 1.022 8.377-3.489 28-8l-40 67H0Z" fill="url(#h)"/></svg>